<svg width="14" height="14" viewBox="0 0 14 14" fill="none" xmlns="http://www.w3.org/2000/svg">
<path fill-rule="evenodd" clip-rule="evenodd" d="M12.0578 3.10889C12.1809 3.23213 12.25 3.3992 12.25 3.57339C12.25 3.74758 12.1809 3.91464 12.0578 4.03789L5.70378 10.3919C5.58053 10.515 5.41346 10.5841 5.23928 10.5841C5.06509 10.5841 4.89802 10.515 4.77478 10.3919L1.92642 7.54356C1.81031 7.41895 1.7471 7.25415 1.7501 7.08385C1.75311 6.91357 1.82209 6.7511 1.94253 6.63066C2.06296 6.51023 2.22544 6.44125 2.39572 6.43824C2.56601 6.43523 2.73081 6.49845 2.85542 6.61456L5.23928 8.99841L11.1288 3.10889C11.252 2.9858 11.4191 2.91666 11.5933 2.91666C11.7674 2.91666 11.9346 2.9858 12.0578 3.10889Z" fill="#32312F"/>
</svg>
